<svg width="25" height="25" viewBox="0 0 25 25" fill="none" xmlns="http://www.w3.org/2000/svg">
<rect x="0.422852" y="0.937988" width="23.7548" height="23.7548" rx="11.8774" fill="white"/>
<path fill-rule="evenodd" clip-rule="evenodd" d="M12.2997 5.82349C11.8198 5.82349 11.4307 6.21258 11.4307 6.69255V18.9382C11.4307 19.4182 11.8198 19.8073 12.2997 19.8073C12.7797 19.8073 13.1688 19.4182 13.1688 18.9382V6.69255C13.1688 6.21258 12.7797 5.82349 12.2997 5.82349ZM14.6269 8.27271C14.6269 7.79274 15.016 7.40365 15.4959 7.40365C15.9759 7.40365 16.365 7.79274 16.365 8.27271V15.4197C16.365 15.8997 15.9759 16.2888 15.4959 16.2888C15.016 16.2888 14.6269 15.8997 14.6269 15.4197V8.27271ZM9.26314 9.36878C8.78317 9.36878 8.39408 9.75787 8.39408 10.2378V17.3849C8.39408 17.8648 8.78317 18.2539 9.26314 18.2539C9.74311 18.2539 10.1322 17.8648 10.1322 17.3849V10.2378C10.1322 9.75787 9.74311 9.36878 9.26314 9.36878ZM17.6641 11.4288C17.6641 10.9488 18.0532 10.5597 18.5331 10.5597C19.0131 10.5597 19.4022 10.9488 19.4022 11.4288V14.1758C19.4022 14.6557 19.0131 15.0448 18.5331 15.0448C18.0532 15.0448 17.6641 14.6557 17.6641 14.1758V11.4288ZM5.19727 11.4288C5.19727 10.9488 5.58636 10.5597 6.06633 10.5597C6.5463 10.5597 6.93539 10.9488 6.93539 11.4288V14.1758C6.93539 14.6558 6.5463 15.0449 6.06633 15.0449C5.58636 15.0449 5.19727 14.6558 5.19727 14.1758V11.4288ZM16.365 17.4406C16.365 17.9206 15.9759 18.3097 15.4959 18.3097C15.016 18.3097 14.6269 17.9206 14.6269 17.4406C14.6269 16.9607 15.016 16.5716 15.4959 16.5716C15.9759 16.5716 16.365 16.9607 16.365 17.4406ZM9.26314 8.96964C9.74311 8.96964 10.1322 8.58055 10.1322 8.10058C10.1322 7.62061 9.74311 7.23152 9.26314 7.23152C8.78317 7.23152 8.39408 7.62061 8.39408 8.10058C8.39408 8.58055 8.78317 8.96964 9.26314 8.96964Z" fill="url(#paint0_linear_246_980)"/>
<defs>
<linearGradient id="paint0_linear_246_980" x1="5.19727" y1="11.6352" x2="19.7158" y2="13.2426" gradientUnits="userSpaceOnUse">
<stop stop-color="#4B62F1"/>
<stop offset="0.525" stop-color="#FE25A1"/>
<stop offset="1" stop-color="#FF8B56"/>
</linearGradient>
</defs>
</svg>
