<svg width="13" height="13" viewBox="0 0 13 13" fill="none" xmlns="http://www.w3.org/2000/svg">
<path d="M6.45044 0.887207C9.78286 0.887207 12.4844 3.58869 12.4844 6.92114C12.4844 10.2536 9.78286 12.9551 6.45044 12.9551C3.11799 12.9551 0.416504 10.2536 0.416504 6.92114H1.62329C1.62329 9.58712 3.78448 11.7483 6.45044 11.7483C9.11641 11.7483 11.2776 9.58712 11.2776 6.92114C11.2776 4.25518 9.11641 2.09399 6.45044 2.09399C4.96376 2.09399 3.63406 2.76607 2.74857 3.82298L4.03687 5.11096H0.416504V1.4906L1.89274 2.96679C2.99904 1.69279 4.63066 0.887207 6.45044 0.887207ZM7.95892 4.65842C7.12582 4.65842 6.45044 5.33379 6.45044 6.1669V7.67538C6.45044 8.50849 7.12582 9.18387 7.95892 9.18387C8.79203 9.18387 9.46741 8.50849 9.46741 7.67538V6.1669C9.46741 5.33379 8.79203 4.65842 7.95892 4.65842ZM8.56232 6.1669V7.67538C8.56232 8.00864 8.29218 8.27878 7.95892 8.27878C7.62567 8.27878 7.35553 8.00864 7.35553 7.67538V6.1669C7.35553 5.83365 7.62567 5.56351 7.95892 5.56351C8.29218 5.56351 8.56232 5.83365 8.56232 6.1669ZM5.24365 4.80927H4.33856V9.03302H5.24365V4.80927Z" fill="white"/>
</svg>
