<svg width="13" height="13" viewBox="0 0 13 13" fill="none" xmlns="http://www.w3.org/2000/svg">
<path d="M6.6604 0.887207C3.32795 0.887207 0.626465 3.58869 0.626465 6.92114C0.626465 10.2536 3.32795 12.9551 6.6604 12.9551C9.99282 12.9551 12.6943 10.2536 12.6943 6.92114H11.4875C11.4875 9.58712 9.32637 11.7483 6.6604 11.7483C3.99444 11.7483 1.83325 9.58712 1.83325 6.92114C1.83325 4.25518 3.99444 2.09399 6.6604 2.09399C8.1471 2.09399 9.4768 2.76607 10.3623 3.82298L9.15748 5.02748C8.89271 4.79758 8.54703 4.65842 8.16888 4.65842C7.33578 4.65842 6.6604 5.33379 6.6604 6.1669V7.67538C6.6604 8.50849 7.33578 9.18387 8.16888 9.18387C9.00199 9.18387 9.67737 8.50849 9.67737 7.67538V6.1669C9.67737 5.75575 9.51288 5.38306 9.24618 5.11096H12.6943V1.4906L11.2181 2.96679C10.1118 1.69279 8.48018 0.887207 6.6604 0.887207ZM8.77228 6.1669V7.67538C8.77228 8.00864 8.50214 8.27878 8.16888 8.27878C7.83563 8.27878 7.56549 8.00864 7.56549 7.67538V6.1669C7.56549 5.83365 7.83563 5.56351 8.16888 5.56351C8.50214 5.56351 8.77228 5.83365 8.77228 6.1669ZM5.45361 4.80927H4.54852V9.03302H5.45361V4.80927Z" fill="white"/>
</svg>
