<svg width="20" height="20" viewBox="0 0 20 20" fill="none" xmlns="http://www.w3.org/2000/svg">
<path d="M8.98324 14.582L9.74341 12.8408C10.42 11.2913 11.6377 10.0578 13.1566 9.3836L15.2491 8.45479C15.9143 8.1595 15.9143 7.19169 15.2491 6.89639L13.222 5.99657C11.6639 5.30498 10.4244 4.02587 9.75943 2.42352L8.98939 0.567957C8.70363 -0.120635 7.7522 -0.120633 7.46645 0.567957L6.69638 2.42351C6.0314 4.02587 4.79185 5.30498 3.23384 5.99657L1.20672 6.89639C0.541446 7.19169 0.541445 8.1595 1.20672 8.45479L3.2992 9.3836C4.81814 10.0578 6.03585 11.2913 6.71238 12.8408L7.4726 14.582C7.76482 15.2512 8.69098 15.2512 8.98324 14.582ZM16.5945 18.8214L16.8082 18.3314C17.1894 17.4577 17.8758 16.7621 18.7323 16.3816L19.391 16.0889C19.7472 15.9306 19.7472 15.4129 19.391 15.2547L18.7692 14.9783C17.8906 14.588 17.1919 13.8667 16.8173 12.9633L16.5978 12.4338C16.4447 12.0648 15.9345 12.0648 15.7815 12.4338L15.562 12.9633C15.1874 13.8667 14.4887 14.588 13.6101 14.9783L12.9883 15.2547C12.6321 15.4129 12.6321 15.9306 12.9883 16.0889L13.6469 16.3816C14.5035 16.7621 15.1899 17.4577 15.571 18.3314L15.7848 18.8214C15.9413 19.1801 16.438 19.1801 16.5945 18.8214Z" fill="url(#paint0_linear_290_61)"/>
<defs>
<linearGradient id="paint0_linear_290_61" x1="10.183" y1="0.0515137" x2="10.183" y2="19.0904" gradientUnits="userSpaceOnUse">
<stop stop-color="#615BE7"/>
<stop offset="0.53" stop-color="#FE25A1"/>
<stop offset="1" stop-color="#FF7B62"/>
</linearGradient>
</defs>
</svg>
