<svg width="13" height="12" viewBox="0 0 13 12" fill="none" xmlns="http://www.w3.org/2000/svg">
<path d="M5.40004 9.15292L5.87145 8.07312C6.29103 7.11224 7.04617 6.34732 7.98814 5.92919L9.28577 5.35319C9.69831 5.17008 9.69831 4.56989 9.28577 4.38677L8.02865 3.82875C7.06245 3.39987 6.29377 2.60663 5.88139 1.61295L5.40385 0.462237C5.22664 0.035211 4.63662 0.0352121 4.45941 0.462237L3.98186 1.61294C3.56948 2.60663 2.80078 3.39987 1.8346 3.82875L0.57749 4.38677C0.164926 4.56989 0.164925 5.17008 0.57749 5.35319L1.87512 5.92919C2.81709 6.34732 3.57224 7.11224 3.99179 8.07312L4.46323 9.15292C4.64445 9.56793 5.2188 9.56793 5.40004 9.15292ZM10.1201 11.782L10.2527 11.4781C10.489 10.9363 10.9147 10.5049 11.4459 10.2689L11.8543 10.0874C12.0753 9.98928 12.0753 9.66822 11.8543 9.57008L11.4687 9.39873C10.9239 9.15668 10.4906 8.70933 10.2582 8.14913L10.1221 7.82076C10.0272 7.59193 9.71082 7.59193 9.61591 7.82076L9.47979 8.14913C9.24752 8.70933 8.81419 9.15668 8.26935 9.39873L7.88372 9.57008C7.66284 9.66822 7.66284 9.98928 7.88372 10.0874L8.29218 10.2689C8.82338 10.5049 9.24903 10.9363 9.48538 11.4781L9.618 11.782C9.71501 12.0044 10.023 12.0044 10.1201 11.782Z" fill="#5A5E65"/>
</svg>
