<svg width="20" height="22" viewBox="0 0 20 22" fill="none" xmlns="http://www.w3.org/2000/svg">
<path d="M0.268677 13.692C0.268677 12.7576 1.02622 12 1.96069 12H7.72874C8.28103 12 8.72874 11.5523 8.72874 11C8.72874 10.4477 8.28103 10 7.72874 10H1.96069C1.02622 10 0.268677 9.24248 0.268677 8.30801V0.845703C0.268677 0.569563 0.492537 0.345703 0.768677 0.345703C0.852927 0.345703 0.935817 0.366993 1.00964 0.407593L19.4721 10.5619C19.7141 10.695 19.8024 10.999 19.6693 11.241C19.6236 11.3241 19.5552 11.3925 19.4721 11.4382L1.00964 21.5925C0.767677 21.7256 0.463647 21.6373 0.330567 21.3954C0.289967 21.3215 0.268677 21.2387 0.268677 21.1544V13.692Z" fill="url(#paint0_linear_246_975)"/>
<defs>
<linearGradient id="paint0_linear_246_975" x1="0.268677" y1="0.345703" x2="16.3302" y2="13.1408" gradientUnits="userSpaceOnUse">
<stop stop-color="#FE25A1"/>
<stop offset="0.525" stop-color="#4B62F1"/>
<stop offset="0.99" stop-color="#FE557D"/>
</linearGradient>
</defs>
</svg>
