<svg width="17" height="19" viewBox="0 0 17 19" fill="none" xmlns="http://www.w3.org/2000/svg">
<mask id="mask0_0_122" style="mask-type:luminance" maskUnits="userSpaceOnUse" x="0" y="0" width="17" height="19">
<path d="M11.9402 0.328629C10.9404 0.397553 9.77197 1.03319 9.0897 1.86169C8.47007 2.61358 7.95858 3.72935 8.15765 4.81352C9.24861 4.84763 10.377 4.19599 11.0321 3.35566C11.6434 2.57034 12.1086 1.46128 11.9402 0.328629ZM12.3098 4.69221C10.6257 4.69221 9.9142 5.49294 8.74658 5.49294C7.54281 5.49294 6.62647 4.69378 5.17142 4.69378C3.74074 4.69378 2.2203 5.56334 1.256 7.04766C1.25043 7.05671 1.24407 7.06558 1.23851 7.07533C0.827045 7.71933 0.565451 8.53597 0.463101 9.45434C0.380251 10.193 0.401833 10.9993 0.532025 11.8341C0.653858 12.611 0.870379 13.4145 1.18577 14.2138C1.47957 14.958 1.85962 15.7002 2.32956 16.4153C2.36855 16.4744 2.40824 16.5342 2.44862 16.5941C3.22071 17.7428 4.23444 18.9599 5.53976 18.9717C6.76096 18.9828 7.10705 18.1925 8.76332 18.1835C10.4202 18.1744 10.7336 18.9799 11.9548 18.9688C13.2059 18.9576 14.2375 17.7192 15.0055 16.5926C15.0807 16.4826 15.1532 16.3739 15.2235 16.2673C15.7449 15.4737 15.9627 15.0442 16.3394 14.215C16.37 14.1482 16.4015 14.0786 16.4349 14.0061C15.337 13.5912 14.5578 12.7844 14.1366 11.8348C13.8052 11.0898 13.696 10.2556 13.8262 9.45435C13.971 8.56738 14.411 7.72018 15.1713 7.07624C15.3851 6.89454 15.6244 6.72962 15.8904 6.58411C14.9296 5.38595 13.5811 4.69239 12.3099 4.69239L12.3098 4.69221Z" fill="white"/>
</mask>
<g mask="url(#mask0_0_122)">
<path d="M18.8127 -2.04854H-1.96397V9.45562H18.8127V-2.04854Z" fill="white"/>
<path d="M18.8126 7.07541H-1.96407V11.834H18.8126V7.07541Z" fill="white"/>
<path d="M18.8126 9.45541H-1.96407V14.2132H18.8126V9.45541Z" fill="white"/>
<path d="M18.8126 11.8347H-1.96407V16.5932H18.8126V11.8347Z" fill="white"/>
<path d="M18.8126 14.214H-1.96407V18.9691H18.8126V14.214Z" fill="white"/>
<path d="M18.8126 16.5954H-1.96407V21.3506H18.8126V16.5954Z" fill="white"/>
</g>
</svg>
