<svg width="19" height="17" viewBox="0 0 19 17" fill="none" xmlns="http://www.w3.org/2000/svg">
<path d="M2.21879 13.8576L3.01376 15.2307C3.17895 15.5198 3.41641 15.7469 3.69517 15.9121L6.53436 10.9977H0.855976C0.855976 11.3178 0.938571 11.6379 1.10376 11.9269L2.21879 13.8576Z" fill="#0066DA"/>
<path d="M9.86912 5.21617L7.02993 0.301788C6.75117 0.466978 6.51371 0.694113 6.34852 0.983194L1.10376 10.0686C0.941609 10.3515 0.856192 10.6718 0.855976 10.9978H6.53436L9.86912 5.21617Z" fill="#00AC47"/>
<path d="M16.043 15.9121C16.3218 15.7469 16.5593 15.5198 16.7244 15.2307L17.0548 14.6629L18.6344 11.9269C18.7996 11.6379 18.8822 11.3178 18.8822 10.9977H13.2034L14.4118 13.3723L16.043 15.9121Z" fill="#EA4335"/>
<path d="M9.8691 5.21612L12.7083 0.301739C12.4295 0.13655 12.1095 0.0539551 11.7791 0.0539551H7.9591C7.62872 0.0539551 7.30866 0.146874 7.02991 0.301739L9.8691 5.21612Z" fill="#00832D"/>
<path d="M13.2039 10.9977H6.53436L3.69517 15.9121C3.97392 16.0773 4.29398 16.1599 4.62436 16.1599H15.1139C15.4443 16.1599 15.7643 16.067 16.0431 15.9121L13.2039 10.9977Z" fill="#2684FC"/>
<path d="M16.0121 5.5259L13.3897 0.983194C13.2245 0.694113 12.987 0.466978 12.7083 0.301788L9.8691 5.21617L13.2039 10.9978H18.8719C18.8719 10.6777 18.7893 10.3577 18.6241 10.0686L16.0121 5.5259Z" fill="#FFBA00"/>
</svg>
