<svg width="17" height="17" viewBox="0 0 17 17" fill="none" xmlns="http://www.w3.org/2000/svg">
<path d="M1.56268 5.11173C2.85917 2.53662 5.52374 0.770935 8.60387 0.770935C10.7277 0.770935 12.5112 1.55173 13.8758 2.82313L11.6159 5.08305C10.7994 4.3023 9.76063 3.90473 8.60387 3.90473C6.55166 3.90473 4.81461 5.29077 4.19507 7.15314C4.03745 7.6259 3.94791 8.13088 3.94791 8.6502C3.94791 9.16952 4.03745 9.6745 4.19507 10.1473C4.81461 12.0096 6.55166 13.3956 8.60387 13.3956C9.66395 13.3956 10.5665 13.1163 11.2721 12.6436C12.1065 12.0848 12.6617 11.2504 12.8443 10.2654H8.60387V7.21759H16.0246C16.1179 7.73329 16.168 8.27058 16.168 8.8293C16.168 11.2288 15.3084 13.2488 13.8184 14.6206C12.5148 15.824 10.7313 16.5295 8.60387 16.5295C5.52374 16.5295 2.85917 14.7638 1.56268 12.1887C1.02905 11.125 0.724609 9.9216 0.724609 8.6502C0.724609 7.3788 1.02905 6.17541 1.56268 5.11173Z" fill="white"/>
</svg>
