<svg width="15" height="17" viewBox="0 0 15 17" fill="none" xmlns="http://www.w3.org/2000/svg">
<path d="M12.6072 6.87228H13.3819C13.8098 6.87228 14.1566 7.21911 14.1566 7.64698V15.3941C14.1566 15.8219 13.8098 16.1688 13.3819 16.1688H0.986621C0.558766 16.1688 0.211914 15.8219 0.211914 15.3941V7.64698C0.211914 7.21911 0.558766 6.87228 0.986621 6.87228H1.76133V6.09757C1.76133 3.10256 4.18927 0.674622 7.18428 0.674622C10.1793 0.674622 12.6072 3.10256 12.6072 6.09757V6.87228ZM1.76133 8.42169V14.6193H12.6072V8.42169H1.76133ZM6.40957 9.97111H7.95898V13.0699H6.40957V9.97111ZM11.0578 6.87228V6.09757C11.0578 3.95828 9.32355 2.22404 7.18428 2.22404C5.04499 2.22404 3.31074 3.95828 3.31074 6.09757V6.87228H11.0578Z" fill="#6F6F6F"/>
</svg>
