<svg width="19" height="19" viewBox="0 0 19 19" fill="none" xmlns="http://www.w3.org/2000/svg">
<path d="M14.9851 13.4015L18.1189 16.5353C18.4612 16.8775 18.4612 17.4325 18.1189 17.7747C17.7766 18.117 17.2217 18.117 16.8795 17.7747L13.7457 14.6409C12.3961 15.7207 10.6845 16.3666 8.82291 16.3666C4.46878 16.3666 0.934998 12.8329 0.934998 8.47873C0.934998 4.12461 4.46878 0.59082 8.82291 0.59082C13.177 0.59082 16.7108 4.12461 16.7108 8.47873C16.7108 10.3403 16.0649 12.0519 14.9851 13.4015ZM13.2267 12.7512C14.2984 11.6467 14.958 10.1401 14.958 8.47873C14.958 5.08912 12.2125 2.34369 8.82291 2.34369C5.4333 2.34369 2.68787 5.08912 2.68787 8.47873C2.68787 11.8683 5.4333 14.6138 8.82291 14.6138C10.4843 14.6138 11.9909 13.9543 13.0954 12.8826L13.2267 12.7512Z" fill="white"/>
</svg>
