<svg width="19" height="17" viewBox="0 0 19 17" fill="none" xmlns="http://www.w3.org/2000/svg">
<path d="M1.3837 0.604492H17.1595C17.6436 0.604492 18.036 0.99689 18.036 1.48093V15.5039C18.036 15.9879 17.6436 16.3803 17.1595 16.3803H1.3837C0.899661 16.3803 0.507263 15.9879 0.507263 15.5039V1.48093C0.507263 0.99689 0.899661 0.604492 1.3837 0.604492ZM9.27161 2.35736C7.81949 2.35736 6.64231 3.53454 6.64231 4.98667V11.9981C6.64231 13.4503 7.81949 14.6275 9.27161 14.6275H13.6538C15.1059 14.6275 16.2831 13.4503 16.2831 11.9981V4.98667C16.2831 3.53454 15.1059 2.35736 13.6538 2.35736H9.27161Z" fill="white"/>
<circle cx="3.50052" cy="5.74832" r="0.933994" fill="#171717"/>
<circle cx="3.50052" cy="8.49228" r="0.933994" fill="#171717"/>
<circle cx="3.50052" cy="11.2372" r="0.933994" fill="#171717"/>
</svg>
