<svg width="13" height="12" viewBox="0 0 13 12" fill="none" xmlns="http://www.w3.org/2000/svg">
<path d="M1.90515 9.88734H11.078V6.44752C11.078 6.13089 11.3347 5.87421 11.6513 5.87421C11.9679 5.87421 12.2246 6.13089 12.2246 6.44752V10.4606C12.2246 10.7773 11.968 11.0339 11.6513 11.0339H1.33185C1.01522 11.0339 0.758545 10.7773 0.758545 10.4606V6.44752C0.758545 6.13089 1.01522 5.87421 1.33185 5.87421C1.64848 5.87421 1.90515 6.13089 1.90515 6.44752V9.88734ZM7.06489 4.1543V7.59413C7.06489 7.91075 6.80821 8.16743 6.49158 8.16743C6.17496 8.16743 5.91828 7.91075 5.91828 7.59412V4.1543H3.05176L6.49158 0.714478L9.93141 4.1543H7.06489Z" fill="white"/>
</svg>
