<svg width="14" height="16" viewBox="0 0 14 16" fill="none" xmlns="http://www.w3.org/2000/svg">
<path d="M7.04445 11.4944C9.7945 11.4944 12.1993 12.6771 13.5074 14.4414L12.1243 15.0957C11.0598 13.834 9.18253 12.9962 7.04445 12.9962C4.90635 12.9962 3.02916 13.834 1.9646 15.0957L0.582031 14.4408C1.89024 12.6768 4.29474 11.4944 7.04445 11.4944ZM7.04445 0.231079C9.11795 0.231079 10.7989 1.912 10.7989 3.98553V6.23819C10.7989 8.25718 9.20528 9.90388 7.20731 9.98919L7.04445 9.99264C4.97092 9.99264 3.29 8.3117 3.29 6.23819V3.98553C3.29 1.96657 4.88361 0.319819 6.88158 0.234548L7.04445 0.231079ZM7.04445 1.73286C5.84475 1.73286 4.86411 2.67066 4.7956 3.85317L4.79178 3.98553V6.23819C4.79178 7.48234 5.8003 8.49086 7.04445 8.49086C8.24414 8.49086 9.2248 7.55308 9.29328 6.37057L9.29711 6.23819V3.98553C9.29711 2.74141 8.28852 1.73286 7.04445 1.73286Z" fill="#6F6F6F"/>
</svg>
