<svg width="12" height="15" viewBox="0 0 12 15" fill="none" xmlns="http://www.w3.org/2000/svg">
<path d="M5.97019 0.844727C7.64094 0.844727 8.99538 2.19916 8.99538 3.86992V6.29008C8.99538 7.96083 7.64094 9.31528 5.97019 9.31528C4.29939 9.31528 2.94497 7.96083 2.94497 6.29008V3.86992C2.94497 2.19916 4.29939 0.844727 5.97019 0.844727ZM0.676338 7.57107C0.590472 7.21495 0.878291 6.89512 1.24461 6.89512C1.55056 6.89512 1.80522 7.12191 1.88642 7.41688C2.3798 9.20899 4.02126 10.5254 5.97019 10.5254C7.91906 10.5254 9.56051 9.20898 10.0539 7.41686C10.1351 7.1219 10.3898 6.89512 10.6957 6.89512C11.062 6.89512 11.3498 7.21494 11.264 7.57105C10.7338 9.76992 8.86928 11.4486 6.57523 11.7022V13.5506C6.57523 13.8847 6.30434 14.1556 5.97019 14.1556C5.63603 14.1556 5.36515 13.8847 5.36515 13.5506V11.7022C3.07107 11.4486 1.20652 9.76993 0.676338 7.57107Z" fill="white"/>
</svg>
